#!OML:ASF H:\Terrain\Patient Classification 1\Walking\liu\liu.ASF
:FULLY-SPECIFIED
:DEGREES
1
root 8.87208 15.7511 -31.7081 5.5217 4.9122 3.70117
lowerback -6.36782 -4.70696 -6.683
upperback -0.643012 -5.87124 2.06862
thorax 3.78681 -3.04691 5.29674
lowerneck -24.0759 -2.27082 -11.0665
upperneck 24.0856 -2.48175 11.8592
head 12.2401 -0.563692 6.00894
rclavicle -2.43511e-015 -1.90833e-014
rhumerus -44.9636 -1.75199 -74.7834
rradius 18.5852
rwrist -1.70884
rhand -28.8562 -18.8005
rfingers 7.12502
rthumb -2.21279 -48.7688
lclavicle -2.43511e-015 -1.90833e-014
lhumerus -1.92727 -17.3217 82.8203
lradius 47.7499
lwrist 17.0419
lhand -19.6688 -28.7993
lfingers 7.12502
lthumb 6.65951 1.07601
rfemur -38.858 0.527314 17.3997
rtibia 30.0014
rfoot -4.01149 0.174858
rtoes -20.7668
lfemur 24.5842 9.53209 -22.1071
ltibia -1.90833e-014
lfoot -3.73452 -5.77693
ltoes -22.0517
2
root 8.84821 15.7496 -31.4727 5.44829 4.90048 2.96701
lowerback -5.84966 -4.80818 -6.28683
upperback -1.15479 -6.09083 2.59399
thorax 3.01101 -3.11952 5.66516
lowerneck -24.2118 -2.01089 -11.4659
upperneck 24.8749 -2.08527 12.1627
head 12.527 -0.392647 6.31897
rclavicle 4.94104e-014 -1.27222e-014
rhumerus -45.3086 -1.82645 -73.9149
rradius 18.349
rwrist -1.20715
rhand -29.478 -20.1327
rfingers 7.12502
rthumb -2.81332 -50.0939
lclavicle 4.94104e-014 -1.27222e-014
lhumerus -4.18375 -16.2548 83.9329
lradius 48.5934
lwrist 16.3341
lhand -19.6628 -29.0763
lfingers 7.12502
lthumb 6.66533 0.798822
rfemur -38.5521 0.734708 18.3431
rtibia 30.7872
rfoot -2.58563 0.225899
rtoes -19.0309
lfemur 25.3387 9.46516 -20.9951
ltibia 6.99722e-014
lfoot -1.05051 -4.5956
ltoes -20.0947
3
root 8.83174 15.7527 -31.2268 5.36867 5.00214 2.6928
lowerback -5.83845 -4.93851 -6.13025
upperback -1.30866 -6.28381 2.83355
thorax 2.88352 -3.20842 5.81481
lowerneck -24.3659 -1.99605 -11.7133
upperneck 25.1163 -1.96486 12.1618
head 12.6379 -0.364095 6.40129
rclavicle -9.30561e-015 3.18055e-014
rhumerus -45.1392 -2.07507 -73.3369
rradius 18.0165
rwrist -0.944935
rhand -26.7294 -21.9097
rfingers 7.12502
rthumb -0.158774 -51.8893
lclavicle -9.30561e-015 3.18055e-014
lhumerus -5.88581 -15.6288 84.6363
lradius 49.2705
lwrist 15.8981
lhand -19.6371 -29.3169
lfingers 7.12502
lthumb 6.69013 0.55737
rfemur -38.1223 0.186665 19.1042
rtibia 31.7594
rfoot -1.90938 0.893285
rtoes -18.3339
lfemur 26.0713 9.29612 -20.4662
ltibia 0
lfoot 1.81435 -3.07986
ltoes -16.8976
4
root 8.81413 15.7664 -30.9831 5.29191 4.97044 2.25999
lowerback -6.09201 -4.90469 -5.65809
upperback -1.26926 -6.25702 2.93938
thorax 3.02404 -3.19585 5.64182
lowerneck -24.5686 -2.08357 -11.8672
upperneck 25.2528 -2.01044 12.1465
head 12.742 -0.399663 6.42813
rclavicle -7.45443e-014 -1.11319e-014
rhumerus -44.7282 -3.29333 -72.4627
rradius 17.4932
rwrist 0.623119
rhand -28.0983 -22.0329
rfingers 7.12502
rthumb -1.48085 -52.0075
lclavicle -7.45443e-014 -1.11319e-014
lhumerus -6.67022 -16.9288 84.6249
lradius 49.5252
lwrist 16.8814
lhand -19.9235 -29.2581
lfingers 7.12502
lthumb 6.41367 0.624782
rfemur -37.6729 -0.0671438 20.0455
rtibia 32.6072
rfoot -1.91088 1.22242
rtoes -17.6893
lfemur 26.7515 9.29354 -19.8509
ltibia -1.17681e-013
lfoot 4.86042 -1.46642
ltoes -16.25
5
root 8.79642 15.7773 -30.7435 5.12091 4.92014 1.63957
lowerback -6.0582 -4.98562 -5.07713
upperback -1.33337 -6.41168 3.20472
thorax 2.92835 -3.2653 5.58303
lowerneck -24.722 -1.8802 -12.0006
upperneck 25.5546 -1.69796 12.2532
head 12.847 -0.262012 6.5723
rclavicle 1.07145e-013 -9.54166e-015
rhumerus -44.3635 -4.07067 -71.7059
rradius 17.0153
rwrist 2.37784
rhand -26.0231 -21.3855
rfingers 7.12502
rthumb 0.523456 -51.3646
lclavicle 1.07145e-013 -9.54166e-015
lhumerus -7.75665 -17.2225 84.8692
lradius 49.6944
lwrist 17.0946
lhand -19.9896 -29.2929
lfingers 7.12502
lthumb 6.34985 0.591936
rfemur -37.1187 -0.153824 21.1227
rtibia 33.3922
rfoot -2.06245 1.45347
rtoes -15.8178
lfemur 23.2859 9.34203 -19.1054
ltibia 8.15079
lfoot 4.57685 -1.02633
ltoes -20.3044
